<svg aria-hidden="true" style="position: absolute; width: 0; height: 0; overflow: hidden;" version="1.1" xmlns="http://www.w3.org/2000/svg" xmlns:xlink="http://www.w3.org/1999/xlink">
<defs>
<symbol id="icon-phone-svgrepo-com" viewBox="0 0 32 32">
<path d="M19.727 2.667h-7.453c-1.487 0-2.025 0.155-2.568 0.445-0.539 0.29-0.97 0.721-1.252 1.244l-0.008 0.016c-0.291 0.543-0.445 1.081-0.445 2.568v18.12c0 1.485 0.155 2.025 0.445 2.568s0.717 0.969 1.26 1.26c0.543 0.291 1.081 0.445 2.568 0.445h7.453c1.485 0 2.025-0.155 2.568-0.445s0.969-0.717 1.26-1.26c0.291-0.543 0.445-1.081 0.445-2.568v-18.12c0-1.487-0.155-2.025-0.445-2.568-0.29-0.539-0.721-0.97-1.244-1.252l-0.016-0.008c-0.543-0.291-1.081-0.445-2.568-0.445zM10.667 23.993v-15.987h10.667v15.987h-10.667z"></path>
</symbol>
<symbol id="icon-github-svgrepo-com-1" viewBox="0 0 32 32">
<path d="M16 2.667c-0.015-0-0.033-0-0.050-0-7.364 0-13.333 5.97-13.333 13.333 0 5.875 3.8 10.863 9.076 12.639l0.094 0.027c0.667 0.107 0.88-0.307 0.88-0.667v-2.253c-3.693 0.8-4.48-1.747-4.48-1.747-0.259-0.845-0.798-1.539-1.506-1.991l-0.014-0.009c-1.213-0.827 0.093-0.8 0.093-0.8 0.87 0.116 1.603 0.616 2.033 1.321l0.007 0.012c0.501 0.879 1.432 1.461 2.499 1.461 0.507 0 0.983-0.131 1.396-0.362l-0.015 0.007c0.065-0.703 0.374-1.324 0.84-1.787l0-0c-2.853-0.293-6.027-1.44-6.027-6.52-0.001-0.045-0.002-0.097-0.002-0.149 0-1.335 0.507-2.552 1.339-3.468l-0.004 0.004c-0.173-0.474-0.273-1.021-0.273-1.592 0-0.698 0.15-1.361 0.419-1.958l-0.012 0.030s1.12-0.36 3.667 1.333c1-0.28 2.148-0.44 3.333-0.44s2.334 0.161 3.424 0.461l-0.090-0.021c2.547-1.72 3.667-1.333 3.667-1.333 0.257 0.567 0.407 1.23 0.407 1.928 0 0.571-0.1 1.118-0.284 1.625l0.011-0.033c0.828 0.912 1.335 2.129 1.335 3.464 0 0.053-0.001 0.105-0.002 0.157l0-0.008c0 5.093-3.12 6.213-6.093 6.547 0.573 0.576 0.928 1.37 0.928 2.247 0 0.077-0.003 0.154-0.008 0.229l0.001-0.010v3.653c0 0.36 0.213 0.787 0.893 0.667 5.37-1.804 9.17-6.792 9.17-12.667 0-7.358-5.96-13.324-13.316-13.333h-0.001z"></path>
</symbol>
<symbol id="icon-linkedin-rounded-border-svgrepo-com" viewBox="0 0 32 32">
<path d="M29.5 0h-27c-1.381 0-2.5 1.119-2.5 2.5v27c0 1.381 1.119 2.5 2.5 2.5h27c1.381 0 2.5-1.119 2.5-2.5v-27c0-1.381-1.119-2.5-2.5-2.5zM30.125 29.5c0 0.344-0.281 0.625-0.625 0.625h-27c-0.344 0-0.625-0.281-0.625-0.625v-27c0-0.344 0.281-0.625 0.625-0.625h27c0.344 0 0.625 0.281 0.625 0.625v27z"></path>
<path d="M8.406 12.713h3.119v9.981h-3.119v-9.981z"></path>
<path d="M20.044 12.619c-1.788 0-2.906 0.975-3.113 1.662v-1.569h-3.506c0.044 0.831 0 9.981 0 9.981h3.506v-5.394c0-0.306-0.012-0.606 0.075-0.819 0.238-0.6 0.756-1.225 1.688-1.225 1.219 0 1.769 0.925 1.769 2.275v5.163h3.538v-5.55c0-3.088-1.738-4.525-3.956-4.525z"></path>
<path d="M9.9 8c-1.15 0-1.906 0.744-1.906 1.731 0 0.969 0.731 1.731 1.863 1.731h0.025c1.175 0 1.906-0.769 1.9-1.731-0.025-0.988-0.731-1.731-1.881-1.731z"></path>
</symbol>
<symbol id="icon-email" viewBox="0 0 32 32">
<path d="M26.667 5.333h-21.333c-1.467 0-2.653 1.2-2.653 2.667l-0.013 16c0 1.467 1.2 2.667 2.667 2.667h21.333c1.467 0 2.667-1.2 2.667-2.667v-16c0-1.467-1.2-2.667-2.667-2.667zM26.133 11l-9.427 5.893c-0.427 0.267-0.987 0.267-1.413 0l-9.427-5.893c-0.333-0.213-0.533-0.573-0.533-0.96 0-0.893 0.973-1.427 1.733-0.96l8.933 5.587 8.933-5.587c0.76-0.467 1.733 0.067 1.733 0.96 0 0.387-0.2 0.747-0.533 0.96z"></path>
</symbol>
<symbol id="icon-telegram" viewBox="0 0 32 32">
<path d="M16 0c-8.838 0-16 7.162-16 16s7.162 16 16 16 16-7.163 16-16-7.163-16-16-16zM23.863 10.969l-2.625 12.369c-0.181 0.881-0.712 1.087-1.45 0.681l-4-2.956-1.919 1.869c-0.225 0.219-0.4 0.4-0.8 0.4-0.519 0-0.431-0.194-0.606-0.688l-1.363-4.475-3.956-1.231c-0.856-0.262-0.862-0.85 0.194-1.269l15.412-5.95c0.7-0.319 1.381 0.169 1.113 1.25z"></path>
</symbol>
<symbol id="icon-location2" viewBox="0 0 32 32">
<path d="M16 0c-5.523 0-10 4.477-10 10 0 10 10 22 10 22s10-12 10-22c0-5.523-4.477-10-10-10zM16 16.125c-3.383 0-6.125-2.742-6.125-6.125s2.742-6.125 6.125-6.125 6.125 2.742 6.125 6.125-2.742 6.125-6.125 6.125zM12.125 10c0-2.14 1.735-3.875 3.875-3.875s3.875 1.735 3.875 3.875c0 2.14-1.735 3.875-3.875 3.875s-3.875-1.735-3.875-3.875z"></path>
</symbol>
<symbol id="icon-compass" viewBox="0 0 32 32">
<path d="M17 32c-0.072 0-0.144-0.008-0.217-0.024-0.458-0.102-0.783-0.507-0.783-0.976v-15h-15c-0.469 0-0.875-0.326-0.976-0.783s0.129-0.925 0.553-1.123l30-14c0.381-0.178 0.833-0.098 1.13 0.199s0.377 0.749 0.199 1.13l-14 30c-0.167 0.358-0.524 0.577-0.906 0.577zM5.508 14h11.492c0.552 0 1 0.448 1 1v11.492l10.931-23.423-23.423 10.931z"></path>
</symbol>
</defs>
</svg>
